<svg xmlns="http://www.w3.org/2000/svg" viewBox="0 0 203.22 101.44"><defs><style>.cls-1{isolation:isolate;}.cls-2{opacity:0.3;}.cls-2,.cls-3{mix-blend-mode:multiply;}.cls-3{opacity:0.35;}.cls-4{font-size:29px;font-family:Arial-BoldMT, Arial;font-weight:700;}</style></defs><g class="cls-1"><g id="filler"><g class="cls-2"><path d="M25.32,41.48a1.51,1.51,0,0,0,1.28,2.28l13.15.07,5,7-5,7-13.14-.07A1.5,1.5,0,0,0,25.23,60a17.92,17.92,0,0,0,31.46-1.11l37.72.2a8,8,0,0,0,.08-16l-37.69-.2a17.94,17.94,0,0,0-31.48-1.44ZM96.58,49a3,3,0,1,1-4.24,0A3,3,0,0,1,96.58,49Z" transform="translate(-24.02 -2.86)"/><path d="M227,60.31A1.5,1.5,0,0,0,225.69,58l-13.15,0-5-7,5-7,13.14,0A1.51,1.51,0,0,0,227,41.77,17.91,17.91,0,0,0,195.57,43l-37.72-.12a8,8,0,0,0,0,16l37.69.12A17.94,17.94,0,0,0,227,60.31ZM155.7,53a3,3,0,1,1,4.24,0A3,3,0,0,1,155.7,53Z" transform="translate(-24.02 -2.86)"/><rect x="28.35" y="39.19" width="147.44" height="17.91"/></g><path d="M24.32,40.48a1.51,1.51,0,0,0,1.28,2.28l13.15.07,5,7-5,7-13.14-.07A1.5,1.5,0,0,0,24.23,59a17.92,17.92,0,0,0,31.46-1.11l37.72.2a8,8,0,0,0,.08-16l-37.69-.2a17.94,17.94,0,0,0-31.48-1.44ZM95.58,48a3,3,0,1,1-4.24,0A3,3,0,0,1,95.58,48Z" transform="translate(-24.02 -2.86)"/><path d="M226,59.31A1.5,1.5,0,0,0,224.69,57l-13.15,0-5-7,5-7,13.14,0A1.51,1.51,0,0,0,226,40.77,17.91,17.91,0,0,0,194.57,42l-37.72-.12a8,8,0,0,0,0,16l37.69.12A17.94,17.94,0,0,0,226,59.31ZM154.7,52a3,3,0,1,1,4.24,0A3,3,0,0,1,154.7,52Z" transform="translate(-24.02 -2.86)"/><rect x="27.35" y="38.19" width="147.44" height="17.91"/></g><g id="text"><g class="cls-3"><text class="cls-4" transform="translate(17.82 25.88)">First Choice </text></g><text class="cls-4" transform="translate(16.82 24.88)">First Choice </text><g class="cls-3"><text class="cls-4" transform="translate(19.7 90.52)">Auto Repair</text></g><text class="cls-4" transform="translate(18.7 89.52)">Auto Repair</text></g></g></svg>